<svg width="48" height="48" viewBox="0 0 48 48" fill="none" xmlns="http://www.w3.org/2000/svg">
<mask id="mask0_219_109" style="mask-type:alpha" maskUnits="userSpaceOnUse" x="0" y="0" width="48" height="48">
<rect width="48" height="48" fill="#D9D9D9"/>
</mask>
<g mask="url(#mask0_219_109)">
<path d="M24 29.5C25.7132 29.5 27.2582 29.1 28.6349 28.3C30.0116 27.5 31.1167 26.4333 31.95 25.1C30.8167 24.2333 29.5797 23.5833 28.2392 23.15C26.8987 22.7167 25.4821 22.5 23.9893 22.5C22.4964 22.5 21.0833 22.7167 19.75 23.15C18.4167 23.5833 17.1833 24.2333 16.05 25.1C16.8833 26.4333 17.9884 27.5 19.3651 28.3C20.7418 29.1 22.2868 29.5 24 29.5ZM24.0044 19.5C24.9681 19.5 25.7917 19.1569 26.475 18.4706C27.1583 17.7843 27.5 16.9593 27.5 15.9956C27.5 15.0319 27.1569 14.2083 26.4706 13.525C25.7843 12.8417 24.9593 12.5 23.9956 12.5C23.0319 12.5 22.2083 12.8431 21.525 13.5294C20.8417 14.2157 20.5 15.0407 20.5 16.0044C20.5 16.9681 20.8431 17.7917 21.5294 18.475C22.2157 19.1583 23.0407 19.5 24.0044 19.5ZM24 44C18.6333 39.4333 14.625 35.1917 11.975 31.275C9.325 27.3583 8 23.7333 8 20.4C8 15.4 9.60833 11.4167 12.825 8.45C16.0417 5.48333 19.7667 4 24 4C28.2333 4 31.9583 5.48333 35.175 8.45C38.3917 11.4167 40 15.4 40 20.4C40 23.7333 38.675 27.3583 36.025 31.275C33.375 35.1917 29.3667 39.4333 24 44Z" fill="#227CC9"/>
</g>
</svg>
