<svg width="48" height="48" viewBox="0 0 48 48" fill="none" xmlns="http://www.w3.org/2000/svg">
<mask id="mask0_219_115" style="mask-type:alpha" maskUnits="userSpaceOnUse" x="0" y="0" width="48" height="48">
<rect width="48" height="48" fill="#D9D9D9"/>
</mask>
<g mask="url(#mask0_219_115)">
<path d="M24 46L17.95 39.95H9C8.2 39.95 7.5 39.65 6.9 39.05C6.3 38.45 6 37.75 6 36.95V6.95001C6 6.11668 6.3 5.40835 6.9 4.82501C7.5 4.24168 8.2 3.95001 9 3.95001H39C39.8 3.95001 40.5 4.24168 41.1 4.82501C41.7 5.40835 42 6.11668 42 6.95001V36.95C42 37.75 41.7 38.45 41.1 39.05C40.5 39.65 39.8 39.95 39 39.95H30.05L24 46ZM24.1 24.9C26.0333 24.9 27.6667 24.2333 29 22.9C30.3333 21.5667 31 19.9333 31 18C31 16.0667 30.3333 14.4333 29 13.1C27.6667 11.7667 26.0333 11.1 24.1 11.1C22.1667 11.1 20.5333 11.7667 19.2 13.1C17.8667 14.4333 17.2 16.0667 17.2 18C17.2 19.9333 17.8667 21.5667 19.2 22.9C20.5333 24.2333 22.1667 24.9 24.1 24.9ZM24 41.55L28.6 36.95H39V35.05C37 33.2167 34.7333 31.725 32.2 30.575C29.6667 29.425 26.9333 28.85 24 28.85C21.0667 28.85 18.3333 29.425 15.8 30.575C13.2667 31.725 11 33.2167 9 35.05V36.95H19.4L24 41.55Z" fill="#227CC9"/>
</g>
</svg>
